 <svg
        width="60"
        height="40"
        viewBox="0 0 949 602"
        fill="none"
        xmlns="http://www.w3.org/2000/svg"
      >
        <g clip-path="url(#clip0_1_11)">
          <path
            d="M398.411 408.5C437.984 391.325 468.532 366.53 490.056 334.115C511.58 301.7 522.328 263.149 522.3 218.46C522.3 173.716 511.689 135.007 490.468 102.331C469.246 69.6555 439.028 44.4349 399.812 26.6692C360.5 8.82119 314.177 -0.0684959 260.841 0.000150378H0V113.514H252.929C294.81 113.514 326.656 122.547 348.468 140.615C370.28 158.683 381.173 184.631 381.145 218.46C381.145 251.726 370.253 277.516 348.468 295.831C326.683 314.146 294.837 323.324 252.929 323.365H0V602H139.404V434.325H267.62L383.762 602H533.488L398.411 408.5Z"
            fill="#3C82F6"></path>
          <path
            d="M684.821 268.297L934.351 0H779.495L561.097 230.342C559.304 277.708 546.365 319.864 522.609 355.656C504.974 382.114 482.117 404.693 455.442 422.01L490.859 472.712L593.753 365.5L786.479 602H949.103L684.821 268.297Z"
            fill="#3C82F6"></path>
          <path
            d="M490.756 472.712L455.339 422.01C482.014 404.693 504.87 382.114 522.506 355.656C546.262 319.864 559.201 277.77 560.994 230.342C560.994 230.342 591.219 356.933 490.756 472.712Z"
            fill="#3C82F6"></path>
        </g>
        <defs>
          <clipPath id="clip0_1_11">
            <rect width="949" height="602" fill="white"></rect>
          </clipPath>
        </defs>
      </svg>