<svg width="949" height="602" viewBox="0 0 949 602" fill="none" xmlns="http://www.w3.org/2000/svg">
<g clip-path="url(#clip0_24_23)">
<path d="M397.217 405.748L393.851 407.209L395.951 410.217L527.735 599H385.333L270.086 432.617L269.191 431.325H267.62H139.404H136.404V434.325V599H3V326.365H252.929H252.932C295.222 326.324 327.869 317.068 350.399 298.127C372.978 279.144 384.145 252.447 384.145 218.462C384.173 183.932 373.018 157.055 350.382 138.305C327.826 119.621 295.185 110.514 252.929 110.514H3V3.00015L260.841 3.00015L260.845 3.00015C313.85 2.93193 359.732 11.7669 398.572 29.4009L398.574 29.4019C437.324 46.9567 467.075 71.82 487.952 103.965C508.813 136.085 519.3 174.208 519.3 218.46V218.462C519.327 262.65 508.707 300.603 487.556 332.456C466.387 364.336 436.318 388.777 397.217 405.748Z" fill="black" stroke="#2B2B2B" stroke-width="6"/>
<path d="M682.624 266.254L680.87 268.14L682.469 270.159L942.9 599H787.904L596.079 363.605L593.937 360.976L591.589 363.423L491.226 467.997L459.667 422.819C485.575 405.514 507.817 383.257 525.106 357.32L525.109 357.315C549.011 321.303 562.076 278.987 564.05 231.588L780.784 3H927.464L682.624 266.254Z" fill="black" stroke="#2B2B2B" stroke-width="6"/>
<path d="M490.756 472.712L455.339 422.009C482.014 404.693 504.87 382.114 522.506 355.656C546.262 319.864 559.201 277.77 560.994 230.342C560.994 230.342 591.219 356.933 490.756 472.712Z" fill="#2B2B2B"/>
</g>
<defs>
<clipPath id="clip0_24_23">
<rect width="949" height="602" fill="white"/>
</clipPath>
</defs>
</svg>
