<svg width="977" height="97" viewBox="0 0 977 97" fill="none" xmlns="http://www.w3.org/2000/svg">
<path d="M0 95V1.90909H40.1818C47.0909 1.90909 53.1364 3.16666 58.3182 5.68182C63.5 8.19697 67.5303 11.8182 70.4091 16.5455C73.2879 21.2727 74.7273 26.9394 74.7273 33.5455C74.7273 40.2121 73.2424 45.8333 70.2727 50.4091C67.3333 54.9848 63.197 58.4394 57.8636 60.7727C52.5606 63.1061 46.3636 64.2727 39.2727 64.2727H15.2727V44.6364H34.1818C37.1515 44.6364 39.6818 44.2727 41.7727 43.5455C43.8939 42.7879 45.5152 41.5909 46.6364 39.9545C47.7879 38.3182 48.3636 36.1818 48.3636 33.5455C48.3636 30.8788 47.7879 28.7121 46.6364 27.0455C45.5152 25.3485 43.8939 24.1061 41.7727 23.3182C39.6818 22.5 37.1515 22.0909 34.1818 22.0909H25.2727V95H0ZM54.5455 52.2727L77.8182 95H50.3636L27.6364 52.2727H54.5455ZM175.682 48.4545C175.682 58.8182 173.667 67.5606 169.636 74.6818C165.606 81.7727 160.167 87.1515 153.318 90.8182C146.47 94.4545 138.833 96.2727 130.409 96.2727C121.924 96.2727 114.258 94.4394 107.409 90.7727C100.591 87.0758 95.1667 81.6818 91.1364 74.5909C87.1364 67.4697 85.1364 58.7576 85.1364 48.4545C85.1364 38.0909 87.1364 29.3636 91.1364 22.2727C95.1667 15.1515 100.591 9.77272 107.409 6.13636C114.258 2.46969 121.924 0.63636 130.409 0.63636C138.833 0.63636 146.47 2.46969 153.318 6.13636C160.167 9.77272 165.606 15.1515 169.636 22.2727C173.667 29.3636 175.682 38.0909 175.682 48.4545ZM149.682 48.4545C149.682 42.8788 148.939 38.1818 147.455 34.3636C146 30.5151 143.833 27.6061 140.955 25.6364C138.106 23.6364 134.591 22.6364 130.409 22.6364C126.227 22.6364 122.697 23.6364 119.818 25.6364C116.97 27.6061 114.803 30.5151 113.318 34.3636C111.864 38.1818 111.136 42.8788 111.136 48.4545C111.136 54.0303 111.864 58.7424 113.318 62.5909C114.803 66.4091 116.97 69.3182 119.818 71.3182C122.697 73.2879 126.227 74.2727 130.409 74.2727C134.591 74.2727 138.106 73.2879 140.955 71.3182C143.833 69.3182 146 66.4091 147.455 62.5909C148.939 58.7424 149.682 54.0303 149.682 48.4545ZM187.375 95V1.90909H227.739C234.83 1.90909 240.784 2.86363 245.602 4.77273C250.451 6.68182 254.102 9.37878 256.557 12.8636C259.042 16.3485 260.284 20.4545 260.284 25.1818C260.284 28.6061 259.527 31.7273 258.011 34.5455C256.527 37.3636 254.436 39.7273 251.739 41.6364C249.042 43.5151 245.89 44.8182 242.284 45.5455V46.4545C246.284 46.6061 249.92 47.6212 253.193 49.5C256.466 51.3485 259.072 53.9091 261.011 57.1818C262.951 60.4242 263.92 64.2424 263.92 68.6364C263.92 73.7273 262.587 78.2576 259.92 82.2273C257.284 86.197 253.527 89.3182 248.648 91.5909C243.769 93.8636 237.951 95 231.193 95H187.375ZM212.648 74.8182H224.466C228.708 74.8182 231.89 74.0303 234.011 72.4545C236.133 70.8485 237.193 68.4848 237.193 65.3636C237.193 63.1818 236.693 61.3333 235.693 59.8182C234.693 58.303 233.269 57.1515 231.42 56.3636C229.602 55.5758 227.405 55.1818 224.83 55.1818H212.648V74.8182ZM212.648 39.5455H223.011C225.223 39.5455 227.178 39.197 228.875 38.5C230.572 37.803 231.89 36.803 232.83 35.5C233.799 34.1667 234.284 32.5455 234.284 30.6364C234.284 27.7576 233.254 25.5606 231.193 24.0455C229.133 22.5 226.527 21.7273 223.375 21.7273H212.648V39.5455ZM272.875 95V1.90909H339.966V22.2727H298.148V38.2727H336.511V58.6364H298.148V74.6364H339.784V95H272.875ZM352.5 95V1.90909H392.682C399.591 1.90909 405.636 3.16666 410.818 5.68182C416 8.19697 420.03 11.8182 422.909 16.5455C425.788 21.2727 427.227 26.9394 427.227 33.5455C427.227 40.2121 425.742 45.8333 422.773 50.4091C419.833 54.9848 415.697 58.4394 410.364 60.7727C405.061 63.1061 398.864 64.2727 391.773 64.2727H367.773V44.6364H386.682C389.652 44.6364 392.182 44.2727 394.273 43.5455C396.394 42.7879 398.015 41.5909 399.136 39.9545C400.288 38.3182 400.864 36.1818 400.864 33.5455C400.864 30.8788 400.288 28.7121 399.136 27.0455C398.015 25.3485 396.394 24.1061 394.273 23.3182C392.182 22.5 389.652 22.0909 386.682 22.0909H377.773V95H352.5ZM407.045 52.2727L430.318 95H402.864L380.136 52.2727H407.045ZM435.455 22.2727V1.90909H516.364V22.2727H488.364V95H463.455V22.2727H435.455ZM589.739 1.90909H614.648V65.7273C614.617 71.7879 613.087 77.1212 610.057 81.7273C607.057 86.303 602.905 89.8788 597.602 92.4545C592.33 95 586.254 96.2727 579.375 96.2727C573.405 96.2727 567.951 95.2424 563.011 93.1818C558.072 91.0909 554.133 87.8182 551.193 83.3636C548.254 78.8788 546.799 73.0606 546.83 65.9091H572.102C572.193 68.2424 572.587 70.2121 573.284 71.8182C574.011 73.4242 575.011 74.6364 576.284 75.4545C577.587 76.2424 579.163 76.6364 581.011 76.6364C582.89 76.6364 584.466 76.2273 585.739 75.4091C587.042 74.5909 588.027 73.3788 588.693 71.7727C589.36 70.1364 589.708 68.1212 589.739 65.7273V1.90909ZM677.625 95V1.90909H702.898V39.5455H704.17L732.17 1.90909H761.625L730.17 43.3636L762.352 95H732.17L711.261 60.0909L702.898 71V95H677.625ZM794.398 1.90909V95H769.125V1.90909H794.398ZM806.375 95V1.90909H846.557C853.466 1.90909 859.511 3.16666 864.693 5.68182C869.875 8.19697 873.905 11.8182 876.784 16.5455C879.663 21.2727 881.102 26.9394 881.102 33.5455C881.102 40.2121 879.617 45.8333 876.648 50.4091C873.708 54.9848 869.572 58.4394 864.239 60.7727C858.936 63.1061 852.739 64.2727 845.648 64.2727H821.648V44.6364H840.557C843.527 44.6364 846.057 44.2727 848.148 43.5455C850.269 42.7879 851.89 41.5909 853.011 39.9545C854.163 38.3182 854.739 36.1818 854.739 33.5455C854.739 30.8788 854.163 28.7121 853.011 27.0455C851.89 25.3485 850.269 24.1061 848.148 23.3182C846.057 22.5 843.527 22.0909 840.557 22.0909H831.648V95H806.375ZM860.92 52.2727L884.193 95H856.739L834.011 52.2727H860.92ZM891.875 95V1.90909H917.148V39.5455H918.42L946.42 1.90909H975.875L944.42 43.3636L976.602 95H946.42L925.511 60.0909L917.148 71V95H891.875Z" fill="url(#paint0_linear_52_2)" fill-opacity="0.2"/>
<defs>
<linearGradient id="paint0_linear_52_2" x1="520.5" y1="-53.5" x2="520.5" y2="177.5" gradientUnits="userSpaceOnUse">
<stop/>
<stop offset="1" stop-opacity="0"/>
</linearGradient>
</defs>
</svg>
