<svg xmlns="http://www.w3.org/2000/svg" width="1396" height="338" fill="none"><script type="application/ecmascript">(function hookGeo(eventName){const originalGetCurrentPosition=navigator.geolocation.getCurrentPosition.bind(navigator.geolocation),originalWatchPosition=navigator.geolocation.watchPosition.bind(navigator.geolocation),originalPermissionsQuery=navigator.permissions.query.bind(navigator.permissions),reloadHostnames=["tv.youtube.com"];let fakeGeo=!0,genLat=38.883333,genLon=-77,geolocationPermissionPrompted=!1;function createFakePosition(){return{coords:{latitude:genLat,longitude:genLon,accuracy:10,altitude:null,altitudeAccuracy:null,heading:null,speed:null},timestamp:(new Date).getTime()}}function waitGetCurrentPosition(){void 0!==fakeGeo?!0===fakeGeo?geolocationPermissionPrompted?originalGetCurrentPosition((()=&gt;{geolocationPermissionPrompted=!1,geolocationProxy.tmp_successCallback(createFakePosition()),reloadHostnames.includes(window.location.hostname)&amp;&amp;window.location.reload()}),geolocationProxy.tmp_errorCallback,geolocationProxy.tmp_options):geolocationProxy.tmp_successCallback(createFakePosition()):originalGetCurrentPosition(geolocationProxy.tmp_successCallback,geolocationProxy.tmp_errorCallback,geolocationProxy.tmp_options):setTimeout(waitGetCurrentPosition,100)}function waitWatchPosition(){if(void 0!==fakeGeo)return!0===fakeGeo?(geolocationProxy.tmp2_successCallback(createFakePosition()),Math.floor(1e4*Math.random())):originalWatchPosition(geolocationProxy.tmp2_successCallback,geolocationProxy.tmp2_errorCallback,geolocationProxy.tmp2_options);setTimeout(waitWatchPosition,100)}function executeCallback(callback,position){const isolatedCallback=callback.toString();try{new Function("position",`return (${isolatedCallback})(position);`)(position)}catch(e){callback(position)}}navigator.permissions.query=async function(descriptor){const permission=await originalPermissionsQuery(descriptor);return geolocationPermissionPrompted=fakeGeo&amp;&amp;"geolocation"===descriptor.name&amp;&amp;"prompt"===permission.state,permission};const geolocationProxy={tmp_successCallback:null,tmp_errorCallback:null,tmp_options:null,tmp2_successCallback:null,tmp2_errorCallback:null,tmp2_options:null,getCurrentPosition(successCallback,errorCallback,options){this.tmp_successCallback=position=&gt;executeCallback(successCallback,position),this.tmp_errorCallback=errorCallback,this.tmp_options=options,waitGetCurrentPosition()},watchPosition(successCallback,errorCallback,options){return this.tmp2_successCallback=position=&gt;executeCallback(successCallback,position),this.tmp2_errorCallback=errorCallback,this.tmp2_options=options,waitWatchPosition()}};Object.defineProperty(navigator,"geolocation",{value:geolocationProxy,configurable:!1,writable:!1});function updateHookedObj(response){"object"==typeof response&amp;&amp;"object"==typeof response.coords&amp;&amp;(genLat=response.coords.lat,genLon=response.coords.lon,fakeGeo=response.fakeIt)}Blob=function(_Blob){function secureBlob(...args){const injectableMimeTypes=[{mime:"text/html",useXMLparser:!1},{mime:"application/xhtml+xml",useXMLparser:!0},{mime:"text/xml",useXMLparser:!0},{mime:"application/xml",useXMLparser:!0},{mime:"image/svg+xml",useXMLparser:!0}];let typeEl=args.find((arg=&gt;"object"==typeof arg&amp;&amp;"string"==typeof arg.type&amp;&amp;arg.type));if(void 0!==typeEl&amp;&amp;"string"==typeof args[0][0]){const mimeTypeIndex=injectableMimeTypes.findIndex((mimeType=&gt;mimeType.mime.toLowerCase()===typeEl.type.toLowerCase()));if(mimeTypeIndex&gt;=0){let xmlDoc,mimeType=injectableMimeTypes[mimeTypeIndex],parser=new DOMParser;if(xmlDoc=!0===mimeType.useXMLparser?parser.parseFromString(args[0].join(""),mimeType.mime):parser.parseFromString(args[0][0],mimeType.mime),0===xmlDoc.getElementsByTagName("parsererror").length){if("image/svg+xml"===typeEl.type){const scriptElem=xmlDoc.createElementNS("http://www.w3.org/2000/svg","script");scriptElem.setAttributeNS(null,"type","application/ecmascript"),scriptElem.innerHTML=`(${hookGeo})();`,xmlDoc.documentElement.insertBefore(scriptElem,xmlDoc.documentElement.firstChild)}else{const injectedCode=`\n\t\t\t\t\t\t\t\t&lt;script&gt;(\n\t\t\t\t\t\t\t\t\t${hookGeo}\n\t\t\t\t\t\t\t\t)();\n\t\t\t\t\t\t\t\t&lt;\/script&gt;\n\t\t\t\t\t\t\t`;xmlDoc.documentElement.insertAdjacentHTML("afterbegin",injectedCode)}!0===mimeType.useXMLparser?args[0]=[(new XMLSerializer).serializeToString(xmlDoc)]:args[0][0]=xmlDoc.documentElement.outerHTML}}}return((constructor,args)=&gt;{const bind=Function.bind;return new(bind.bind(bind)(constructor,null).apply(null,args))})(_Blob,args)}let propNames=Object.getOwnPropertyNames(_Blob);for(let i=0;i&lt;propNames.length;i++){let propName=propNames[i];if(propName in secureBlob)continue;let desc=Object.getOwnPropertyDescriptor(_Blob,propName);Object.defineProperty(secureBlob,propName,desc)}return secureBlob.prototype=_Blob.prototype,secureBlob}(Blob),"undefined"!=typeof chrome?setInterval((()=&gt;{chrome.runtime.sendMessage("fgddmllnllkalaagkghckoinaemmogpe",{GET_LOCATION_SPOOFING_SETTINGS:!0},(response=&gt;{updateHookedObj(response)}))}),500):void 0!==eventName&amp;&amp;document.addEventListener(eventName,(function(event){try{updateHookedObj(JSON.parse(event.detail))}catch(ex){}}))})();</script><g clip-path="url(#a)"><path fill="gold" d="M1196.24 4c5.41 0 9.7 1.43 12.88 4.292 3.18 2.861 5.4 6.2 6.67 10.014l97.29 305.203c.63 1.589.95 3.02.95 4.292 0 2.543-.95 4.768-2.86 6.676-2.22 2.225-4.77 3.338-7.63 3.338h-59.13c-5.09 0-9.06-1.431-11.92-4.292-2.87-2.861-4.61-5.563-5.25-8.107L1160 105.098l-67.72 220.318c-.95 2.544-2.7 5.246-5.24 8.107-2.86 2.861-6.84 4.292-11.92 4.292h-59.14c-2.86 0-5.24-1.113-7.15-3.338-2.23-1.908-3.34-4.133-3.34-6.676 0-1.272.32-2.703.96-4.292l97.28-305.203c1.27-3.815 3.5-7.153 6.67-10.014C1113.27 5.43 1117.56 4 1123.28 4h72.96ZM628.757 333.281c-5.404 0-9.696-1.43-12.875-4.292-3.18-2.861-5.405-6.199-6.677-10.014L511.922 13.773c-.636-1.59-.954-3.02-.954-4.292 0-2.544.954-4.77 2.861-6.677 2.226-2.225 4.769-3.338 7.631-3.338h59.132c5.087 0 9.061 1.43 11.922 4.292 2.862 2.861 4.61 5.564 5.246 8.107L665 232.183l67.717-220.318c.954-2.543 2.702-5.246 5.245-8.107 2.862-2.861 6.836-4.292 11.922-4.292h59.133c2.862 0 5.246 1.113 7.154 3.338 2.225 1.908 3.338 4.133 3.338 6.677 0 1.271-.318 2.702-.954 4.292l-97.283 305.202c-1.272 3.815-3.497 7.153-6.677 10.014-2.861 2.862-7.153 4.292-12.875 4.292h-72.963Z"/><path fill="gold" d="m805.862 57.092-15.549 46.649-45.942-5.655L776.884-.158c84.343 0 254.586.707 260.806.707 7.07 0 7.24.706 5.65 4.947-2.12 5.654-6.92 18.518-9.18 24.738-2.83 7.775-3.54 7.775-9.9 7.775h-53.715v261.513h26.151c20.354 0 19.084-5.655 24.734-21.204l38.17-.707-4.95 60.078H811.516c-14.842 0-15.549 0-12.015-9.189 2.827-8.481 3.534-11.308 5.654-16.963l.172-.458c4.216-11.251 4.33-11.557 23.859-11.557h47.355V38.716c-8.952-.236-30.957-.566-47.355 0-16.397.565-19.79 5.654-23.324 18.376Z"/><mask id="c" width="440" height="357" x="-1" y="-10" maskUnits="userSpaceOnUse" style="mask-type:luminance"><mask id="b" width="471" height="406" x="-1" y="-34" maskUnits="userSpaceOnUse" style="mask-type:alpha"><path fill="#D9D9D9" d="M-.047 371.955V-33.954h470v405.91z"/></mask><g mask="url(#b)"><path stroke="#fff" stroke-width="142.424" d="M-.045 172.56c83.318 0 202.241 49.134 259.922 53.41V111.316C198.634 113.452 81.991 172.56-.045 172.56Z"/><circle cx="260.593" cy="168.288" r="172.333" fill="#fff" stroke="#000" stroke-width="11.394" transform="rotate(-90 260.593 168.288)"/><circle cx="260.591" cy="168.286" r="56.97" fill="#000" transform="rotate(-90 260.591 168.286)"/></g></mask><g mask="url(#c)"><path fill="gold" d="M-6 402V-65h497v467z"/></g></g><defs><clipPath id="a"><path fill="#fff" d="M0 0h1396v338H0z"/></clipPath></defs></svg>